<svg xmlns="http://www.w3.org/2000/svg" version="1.1" xmlns:xlink="http://www.w3.org/1999/xlink" xmlns:svgjs="http://svgjs.com/svgjs" width="1920" height="300" preserveAspectRatio="none" viewBox="0 0 1920 300"><g mask="url(&quot;#SvgjsMask1212&quot;)" fill="none"><rect width="1920" height="300" x="0" y="0" fill="rgba(18, 18, 18, 1)"></rect><path d="M1830 201L1829 340" stroke-width="6" stroke="url(#SvgjsLinearGradient1213)" stroke-linecap="round" class="Down"></path><path d="M574 130L573 39" stroke-width="8" stroke="url(#SvgjsLinearGradient1214)" stroke-linecap="round" class="Up"></path><path d="M1855 173L1854 -50" stroke-width="6" stroke="url(#SvgjsLinearGradient1213)" stroke-linecap="round" class="Down"></path><path d="M617 219L616 138" stroke-width="10" stroke="url(#SvgjsLinearGradient1213)" stroke-linecap="round" class="Down"></path><path d="M865 59L864 140" stroke-width="8" stroke="url(#SvgjsLinearGradient1213)" stroke-linecap="round" class="Down"></path><path d="M111 222L110 133" stroke-width="6" stroke="url(#SvgjsLinearGradient1213)" stroke-linecap="round" class="Down"></path><path d="M312 199L311 344" stroke-width="8" stroke="url(#SvgjsLinearGradient1213)" stroke-linecap="round" class="Down"></path><path d="M1179 103L1178 11" stroke-width="6" stroke="url(#SvgjsLinearGradient1213)" stroke-linecap="round" class="Down"></path><path d="M873 127L872 206" stroke-width="8" stroke="url(#SvgjsLinearGradient1214)" stroke-linecap="round" class="Up"></path><path d="M424 59L423 -47" stroke-width="6" stroke="url(#SvgjsLinearGradient1213)" stroke-linecap="round" class="Down"></path><path d="M776 99L775 245" stroke-width="8" stroke="url(#SvgjsLinearGradient1214)" stroke-linecap="round" class="Up"></path><path d="M576 82L575 -3" stroke-width="10" stroke="url(#SvgjsLinearGradient1214)" stroke-linecap="round" class="Up"></path><path d="M1332 268L1331 130" stroke-width="8" stroke="url(#SvgjsLinearGradient1213)" stroke-linecap="round" class="Down"></path><path d="M1862 54L1861 -162" stroke-width="10" stroke="url(#SvgjsLinearGradient1213)" stroke-linecap="round" class="Down"></path><path d="M833 68L832 188" stroke-width="6" stroke="url(#SvgjsLinearGradient1213)" stroke-linecap="round" class="Down"></path><path d="M976 127L975 11" stroke-width="10" stroke="url(#SvgjsLinearGradient1214)" stroke-linecap="round" class="Up"></path><path d="M1506 207L1505 383" stroke-width="6" stroke="url(#SvgjsLinearGradient1214)" stroke-linecap="round" class="Up"></path><path d="M846 125L845 -55" stroke-width="8" stroke="url(#SvgjsLinearGradient1213)" stroke-linecap="round" class="Down"></path><path d="M775 291L774 149" stroke-width="8" stroke="url(#SvgjsLinearGradient1214)" stroke-linecap="round" class="Up"></path><path d="M1673 254L1672 430" stroke-width="10" stroke="url(#SvgjsLinearGradient1214)" stroke-linecap="round" class="Up"></path><path d="M548 218L547 26" stroke-width="10" stroke="url(#SvgjsLinearGradient1213)" stroke-linecap="round" class="Down"></path><path d="M260 174L259 384" stroke-width="8" stroke="url(#SvgjsLinearGradient1213)" stroke-linecap="round" class="Down"></path><path d="M414 55L413 -141" stroke-width="6" stroke="url(#SvgjsLinearGradient1213)" stroke-linecap="round" class="Down"></path><path d="M1087 215L1086 376" stroke-width="10" stroke="url(#SvgjsLinearGradient1214)" stroke-linecap="round" class="Up"></path><path d="M354 52L353 132" stroke-width="8" stroke="url(#SvgjsLinearGradient1213)" stroke-linecap="round" class="Down"></path><path d="M320 38L319 147" stroke-width="10" stroke="url(#SvgjsLinearGradient1214)" stroke-linecap="round" class="Up"></path><path d="M1302 47L1301 -55" stroke-width="8" stroke="url(#SvgjsLinearGradient1214)" stroke-linecap="round" class="Up"></path><path d="M937 161L936 55" stroke-width="10" stroke="url(#SvgjsLinearGradient1213)" stroke-linecap="round" class="Down"></path><path d="M832 280L831 402" stroke-width="10" stroke="url(#SvgjsLinearGradient1213)" stroke-linecap="round" class="Down"></path><path d="M1190 11L1189 -148" stroke-width="10" stroke="url(#SvgjsLinearGradient1214)" stroke-linecap="round" class="Up"></path><path d="M1604 112L1603 325" stroke-width="8" stroke="url(#SvgjsLinearGradient1214)" stroke-linecap="round" class="Up"></path><path d="M922 107L921 211" stroke-width="10" stroke="url(#SvgjsLinearGradient1213)" stroke-linecap="round" class="Down"></path><path d="M209 195L208 61" stroke-width="10" stroke="url(#SvgjsLinearGradient1213)" stroke-linecap="round" class="Down"></path><path d="M1303 25L1302 131" stroke-width="8" stroke="url(#SvgjsLinearGradient1214)" stroke-linecap="round" class="Up"></path><path d="M595 59L594 -44" stroke-width="8" stroke="url(#SvgjsLinearGradient1214)" stroke-linecap="round" class="Up"></path><path d="M1518 60L1517 269" stroke-width="10" stroke="url(#SvgjsLinearGradient1214)" stroke-linecap="round" class="Up"></path><path d="M849 35L848 171" stroke-width="6" stroke="url(#SvgjsLinearGradient1214)" stroke-linecap="round" class="Up"></path><path d="M9 71L8 206" stroke-width="8" stroke="url(#SvgjsLinearGradient1214)" stroke-linecap="round" class="Up"></path><path d="M195 271L194 406" stroke-width="6" stroke="url(#SvgjsLinearGradient1214)" stroke-linecap="round" class="Up"></path><path d="M1079 285L1078 106" stroke-width="10" stroke="url(#SvgjsLinearGradient1213)" stroke-linecap="round" class="Down"></path><path d="M1546 98L1545 291" stroke-width="10" stroke="url(#SvgjsLinearGradient1214)" stroke-linecap="round" class="Up"></path><path d="M864 189L863 384" stroke-width="6" stroke="url(#SvgjsLinearGradient1214)" stroke-linecap="round" class="Up"></path><path d="M130 137L129 258" stroke-width="8" stroke="url(#SvgjsLinearGradient1213)" stroke-linecap="round" class="Down"></path><path d="M218 130L217 338" stroke-width="8" stroke="url(#SvgjsLinearGradient1213)" stroke-linecap="round" class="Down"></path><path d="M230 72L229 187" stroke-width="8" stroke="url(#SvgjsLinearGradient1213)" stroke-linecap="round" class="Down"></path><path d="M1235 68L1234 178" stroke-width="8" stroke="url(#SvgjsLinearGradient1214)" stroke-linecap="round" class="Up"></path><path d="M1194 218L1193 345" stroke-width="6" stroke="url(#SvgjsLinearGradient1214)" stroke-linecap="round" class="Up"></path><path d="M1118 288L1117 432" stroke-width="10" stroke="url(#SvgjsLinearGradient1214)" stroke-linecap="round" class="Up"></path></g><defs><mask id="SvgjsMask1212"><rect width="1920" height="300" fill="#ffffff"></rect></mask><linearGradient x1="0%" y1="0%" x2="0%" y2="100%" id="SvgjsLinearGradient1213"><stop stop-color="rgba(218, 65, 103, 0)" offset="0"></stop><stop stop-color="rgba(218, 65, 103, 0.4)" offset="1"></stop></linearGradient><linearGradient x1="0%" y1="100%" x2="0%" y2="0%" id="SvgjsLinearGradient1214"><stop stop-color="rgba(218, 65, 103, 0)" offset="0"></stop><stop stop-color="rgba(218, 65, 103, 0.4)" offset="1"></stop></linearGradient></defs></svg>