<svg xmlns="http://www.w3.org/2000/svg" version="1.1" xmlns:xlink="http://www.w3.org/1999/xlink" xmlns:svgjs="http://svgjs.com/svgjs" width="1920" height="300" preserveAspectRatio="none" viewBox="0 0 1920 300"><g mask="url(&quot;#SvgjsMask1018&quot;)" fill="none"><rect width="1920" height="300" x="0" y="0" fill="rgba(18, 18, 18, 1)"></rect><path d="M701 213L700 121" stroke-width="8" stroke="url(#SvgjsLinearGradient1019)" stroke-linecap="round" class="Down"></path><path d="M1181 161L1180 364" stroke-width="8" stroke="url(#SvgjsLinearGradient1019)" stroke-linecap="round" class="Down"></path><path d="M105 171L104 -43" stroke-width="6" stroke="url(#SvgjsLinearGradient1019)" stroke-linecap="round" class="Down"></path><path d="M1326 121L1325 327" stroke-width="8" stroke="url(#SvgjsLinearGradient1020)" stroke-linecap="round" class="Up"></path><path d="M1086 185L1085 67" stroke-width="8" stroke="url(#SvgjsLinearGradient1019)" stroke-linecap="round" class="Down"></path><path d="M839 94L838 222" stroke-width="6" stroke="url(#SvgjsLinearGradient1019)" stroke-linecap="round" class="Down"></path><path d="M1172 37L1171 258" stroke-width="6" stroke="url(#SvgjsLinearGradient1019)" stroke-linecap="round" class="Down"></path><path d="M845 220L844 359" stroke-width="10" stroke="url(#SvgjsLinearGradient1019)" stroke-linecap="round" class="Down"></path><path d="M1748 115L1747 318" stroke-width="10" stroke="url(#SvgjsLinearGradient1020)" stroke-linecap="round" class="Up"></path><path d="M724 135L723 42" stroke-width="10" stroke="url(#SvgjsLinearGradient1020)" stroke-linecap="round" class="Up"></path><path d="M968 227L967 24" stroke-width="6" stroke="url(#SvgjsLinearGradient1020)" stroke-linecap="round" class="Up"></path><path d="M1878 300L1877 514" stroke-width="6" stroke="url(#SvgjsLinearGradient1020)" stroke-linecap="round" class="Up"></path><path d="M1022 134L1021 292" stroke-width="10" stroke="url(#SvgjsLinearGradient1019)" stroke-linecap="round" class="Down"></path><path d="M147 260L146 367" stroke-width="8" stroke="url(#SvgjsLinearGradient1019)" stroke-linecap="round" class="Down"></path><path d="M753 282L752 473" stroke-width="10" stroke="url(#SvgjsLinearGradient1020)" stroke-linecap="round" class="Up"></path><path d="M1886 191L1885 -23" stroke-width="8" stroke="url(#SvgjsLinearGradient1020)" stroke-linecap="round" class="Up"></path><path d="M913 273L912 461" stroke-width="8" stroke="url(#SvgjsLinearGradient1020)" stroke-linecap="round" class="Up"></path><path d="M1415 204L1414 9" stroke-width="10" stroke="url(#SvgjsLinearGradient1019)" stroke-linecap="round" class="Down"></path><path d="M1073 286L1072 142" stroke-width="10" stroke="url(#SvgjsLinearGradient1019)" stroke-linecap="round" class="Down"></path><path d="M1342 94L1341 221" stroke-width="6" stroke="url(#SvgjsLinearGradient1020)" stroke-linecap="round" class="Up"></path><path d="M709 174L708 331" stroke-width="8" stroke="url(#SvgjsLinearGradient1019)" stroke-linecap="round" class="Down"></path><path d="M1399 250L1398 116" stroke-width="8" stroke="url(#SvgjsLinearGradient1020)" stroke-linecap="round" class="Up"></path><path d="M646 130L645 355" stroke-width="10" stroke="url(#SvgjsLinearGradient1019)" stroke-linecap="round" class="Down"></path><path d="M1242 184L1241 282" stroke-width="8" stroke="url(#SvgjsLinearGradient1020)" stroke-linecap="round" class="Up"></path><path d="M1881 232L1880 51" stroke-width="8" stroke="url(#SvgjsLinearGradient1019)" stroke-linecap="round" class="Down"></path><path d="M1335 141L1334 282" stroke-width="6" stroke="url(#SvgjsLinearGradient1019)" stroke-linecap="round" class="Down"></path><path d="M1666 154L1665 353" stroke-width="6" stroke="url(#SvgjsLinearGradient1019)" stroke-linecap="round" class="Down"></path><path d="M309 113L308 21" stroke-width="10" stroke="url(#SvgjsLinearGradient1020)" stroke-linecap="round" class="Up"></path><path d="M686 241L685 124" stroke-width="10" stroke="url(#SvgjsLinearGradient1019)" stroke-linecap="round" class="Down"></path><path d="M1450 10L1449 179" stroke-width="6" stroke="url(#SvgjsLinearGradient1020)" stroke-linecap="round" class="Up"></path><path d="M1756 5L1755 -114" stroke-width="10" stroke="url(#SvgjsLinearGradient1020)" stroke-linecap="round" class="Up"></path><path d="M432 128L431 -8" stroke-width="6" stroke="url(#SvgjsLinearGradient1020)" stroke-linecap="round" class="Up"></path><path d="M336 72L335 -89" stroke-width="8" stroke="url(#SvgjsLinearGradient1020)" stroke-linecap="round" class="Up"></path><path d="M950 102L949 223" stroke-width="8" stroke="url(#SvgjsLinearGradient1019)" stroke-linecap="round" class="Down"></path><path d="M1660 137L1659 290" stroke-width="6" stroke="url(#SvgjsLinearGradient1020)" stroke-linecap="round" class="Up"></path><path d="M97 68L96 236" stroke-width="10" stroke="url(#SvgjsLinearGradient1019)" stroke-linecap="round" class="Down"></path><path d="M1871 3L1870 146" stroke-width="8" stroke="url(#SvgjsLinearGradient1020)" stroke-linecap="round" class="Up"></path><path d="M722 289L721 197" stroke-width="10" stroke="url(#SvgjsLinearGradient1020)" stroke-linecap="round" class="Up"></path><path d="M1685 24L1684 144" stroke-width="6" stroke="url(#SvgjsLinearGradient1019)" stroke-linecap="round" class="Down"></path><path d="M1445 22L1444 123" stroke-width="10" stroke="url(#SvgjsLinearGradient1020)" stroke-linecap="round" class="Up"></path><path d="M623 148L622 14" stroke-width="10" stroke="url(#SvgjsLinearGradient1019)" stroke-linecap="round" class="Down"></path><path d="M875 227L874 422" stroke-width="8" stroke="url(#SvgjsLinearGradient1019)" stroke-linecap="round" class="Down"></path><path d="M115 216L114 32" stroke-width="10" stroke="url(#SvgjsLinearGradient1019)" stroke-linecap="round" class="Down"></path><path d="M1414 168L1413 79" stroke-width="8" stroke="url(#SvgjsLinearGradient1020)" stroke-linecap="round" class="Up"></path><path d="M1280 99L1279 -66" stroke-width="8" stroke="url(#SvgjsLinearGradient1020)" stroke-linecap="round" class="Up"></path><path d="M1329 144L1328 42" stroke-width="10" stroke="url(#SvgjsLinearGradient1020)" stroke-linecap="round" class="Up"></path><path d="M1810 234L1809 405" stroke-width="8" stroke="url(#SvgjsLinearGradient1020)" stroke-linecap="round" class="Up"></path><path d="M431 238L430 52" stroke-width="8" stroke="url(#SvgjsLinearGradient1019)" stroke-linecap="round" class="Down"></path></g><defs><mask id="SvgjsMask1018"><rect width="1920" height="300" fill="#ffffff"></rect></mask><linearGradient x1="0%" y1="0%" x2="0%" y2="100%" id="SvgjsLinearGradient1019"><stop stop-color="rgba(41, 41, 42, 0)" offset="0"></stop><stop stop-color="rgba(41, 41, 42, 1)" offset="1"></stop></linearGradient><linearGradient x1="0%" y1="100%" x2="0%" y2="0%" id="SvgjsLinearGradient1020"><stop stop-color="rgba(41, 41, 42, 0)" offset="0"></stop><stop stop-color="rgba(41, 41, 42, 1)" offset="1"></stop></linearGradient></defs></svg>