<svg xmlns="http://www.w3.org/2000/svg" version="1.1" xmlns:xlink="http://www.w3.org/1999/xlink" xmlns:svgjs="http://svgjs.com/svgjs" width="1920" height="300" preserveAspectRatio="none" viewBox="0 0 1920 300"><g mask="url(&quot;#SvgjsMask1132&quot;)" fill="none"><rect width="1920" height="300" x="0" y="0" fill="rgba(61, 38, 69, 1)"></rect><path d="M515 9L514 101" stroke-width="8" stroke="url(#SvgjsLinearGradient1133)" stroke-linecap="round" class="Up"></path><path d="M892 192L891 268" stroke-width="8" stroke="url(#SvgjsLinearGradient1134)" stroke-linecap="round" class="Down"></path><path d="M1551 59L1550 238" stroke-width="10" stroke="url(#SvgjsLinearGradient1134)" stroke-linecap="round" class="Down"></path><path d="M228 200L227 106" stroke-width="8" stroke="url(#SvgjsLinearGradient1134)" stroke-linecap="round" class="Down"></path><path d="M1912 175L1911 -44" stroke-width="6" stroke="url(#SvgjsLinearGradient1134)" stroke-linecap="round" class="Down"></path><path d="M1392 125L1391 320" stroke-width="10" stroke="url(#SvgjsLinearGradient1133)" stroke-linecap="round" class="Up"></path><path d="M1311 221L1310 131" stroke-width="8" stroke="url(#SvgjsLinearGradient1134)" stroke-linecap="round" class="Down"></path><path d="M1475 9L1474 91" stroke-width="6" stroke="url(#SvgjsLinearGradient1134)" stroke-linecap="round" class="Down"></path><path d="M509 187L508 21" stroke-width="10" stroke="url(#SvgjsLinearGradient1134)" stroke-linecap="round" class="Down"></path><path d="M310 82L309 -124" stroke-width="10" stroke="url(#SvgjsLinearGradient1133)" stroke-linecap="round" class="Up"></path><path d="M1055 200L1054 289" stroke-width="8" stroke="url(#SvgjsLinearGradient1133)" stroke-linecap="round" class="Up"></path><path d="M599 230L598 310" stroke-width="6" stroke="url(#SvgjsLinearGradient1133)" stroke-linecap="round" class="Up"></path><path d="M1794 84L1793 177" stroke-width="8" stroke="url(#SvgjsLinearGradient1133)" stroke-linecap="round" class="Up"></path><path d="M807 190L806 22" stroke-width="6" stroke="url(#SvgjsLinearGradient1134)" stroke-linecap="round" class="Down"></path><path d="M731 9L730 -122" stroke-width="8" stroke="url(#SvgjsLinearGradient1134)" stroke-linecap="round" class="Down"></path><path d="M1094 207L1093 57" stroke-width="6" stroke="url(#SvgjsLinearGradient1134)" stroke-linecap="round" class="Down"></path><path d="M24 225L23 145" stroke-width="6" stroke="url(#SvgjsLinearGradient1134)" stroke-linecap="round" class="Down"></path><path d="M1251 126L1250 -85" stroke-width="6" stroke="url(#SvgjsLinearGradient1133)" stroke-linecap="round" class="Up"></path><path d="M1398 175L1397 -24" stroke-width="10" stroke="url(#SvgjsLinearGradient1133)" stroke-linecap="round" class="Up"></path><path d="M1604 50L1603 233" stroke-width="6" stroke="url(#SvgjsLinearGradient1133)" stroke-linecap="round" class="Up"></path><path d="M1506 40L1505 -178" stroke-width="6" stroke="url(#SvgjsLinearGradient1134)" stroke-linecap="round" class="Down"></path><path d="M918 229L917 65" stroke-width="6" stroke="url(#SvgjsLinearGradient1133)" stroke-linecap="round" class="Up"></path><path d="M816 13L815 -116" stroke-width="6" stroke="url(#SvgjsLinearGradient1133)" stroke-linecap="round" class="Up"></path><path d="M1732 206L1731 -10" stroke-width="6" stroke="url(#SvgjsLinearGradient1134)" stroke-linecap="round" class="Down"></path><path d="M209 260L208 103" stroke-width="6" stroke="url(#SvgjsLinearGradient1133)" stroke-linecap="round" class="Up"></path><path d="M825 115L824 210" stroke-width="6" stroke="url(#SvgjsLinearGradient1134)" stroke-linecap="round" class="Down"></path><path d="M919 210L918 92" stroke-width="6" stroke="url(#SvgjsLinearGradient1133)" stroke-linecap="round" class="Up"></path><path d="M1265 252L1264 54" stroke-width="8" stroke="url(#SvgjsLinearGradient1133)" stroke-linecap="round" class="Up"></path><path d="M970 181L969 399" stroke-width="10" stroke="url(#SvgjsLinearGradient1133)" stroke-linecap="round" class="Up"></path><path d="M624 156L623 59" stroke-width="6" stroke="url(#SvgjsLinearGradient1133)" stroke-linecap="round" class="Up"></path><path d="M1315 177L1314 37" stroke-width="6" stroke="url(#SvgjsLinearGradient1134)" stroke-linecap="round" class="Down"></path><path d="M1184 218L1183 13" stroke-width="8" stroke="url(#SvgjsLinearGradient1133)" stroke-linecap="round" class="Up"></path><path d="M1918 150L1917 263" stroke-width="8" stroke="url(#SvgjsLinearGradient1134)" stroke-linecap="round" class="Down"></path><path d="M1340 281L1339 175" stroke-width="8" stroke="url(#SvgjsLinearGradient1133)" stroke-linecap="round" class="Up"></path><path d="M1266 12L1265 -92" stroke-width="10" stroke="url(#SvgjsLinearGradient1134)" stroke-linecap="round" class="Down"></path><path d="M1742 207L1741 362" stroke-width="8" stroke="url(#SvgjsLinearGradient1134)" stroke-linecap="round" class="Down"></path><path d="M785 93L784 12" stroke-width="8" stroke="url(#SvgjsLinearGradient1134)" stroke-linecap="round" class="Down"></path><path d="M508 200L507 64" stroke-width="8" stroke="url(#SvgjsLinearGradient1133)" stroke-linecap="round" class="Up"></path><path d="M789 228L788 94" stroke-width="10" stroke="url(#SvgjsLinearGradient1134)" stroke-linecap="round" class="Down"></path><path d="M735 77L734 -133" stroke-width="6" stroke="url(#SvgjsLinearGradient1133)" stroke-linecap="round" class="Up"></path><path d="M1000 258L999 56" stroke-width="8" stroke="url(#SvgjsLinearGradient1134)" stroke-linecap="round" class="Down"></path><path d="M1826 75L1825 166" stroke-width="8" stroke="url(#SvgjsLinearGradient1134)" stroke-linecap="round" class="Down"></path><path d="M290 210L289 376" stroke-width="8" stroke="url(#SvgjsLinearGradient1133)" stroke-linecap="round" class="Up"></path><path d="M279 147L278 -57" stroke-width="6" stroke="url(#SvgjsLinearGradient1134)" stroke-linecap="round" class="Down"></path><path d="M650 250L649 372" stroke-width="6" stroke="url(#SvgjsLinearGradient1133)" stroke-linecap="round" class="Up"></path><path d="M1322 194L1321 87" stroke-width="10" stroke="url(#SvgjsLinearGradient1134)" stroke-linecap="round" class="Down"></path><path d="M1672 177L1671 289" stroke-width="6" stroke="url(#SvgjsLinearGradient1134)" stroke-linecap="round" class="Down"></path><path d="M1145 226L1144 320" stroke-width="10" stroke="url(#SvgjsLinearGradient1133)" stroke-linecap="round" class="Up"></path></g><defs><mask id="SvgjsMask1132"><rect width="1920" height="300" fill="#ffffff"></rect></mask><linearGradient x1="0%" y1="100%" x2="0%" y2="0%" id="SvgjsLinearGradient1133"><stop stop-color="rgba(218, 65, 103, 0)" offset="0"></stop><stop stop-color="rgba(218, 65, 103, 0.3)" offset="1"></stop></linearGradient><linearGradient x1="0%" y1="0%" x2="0%" y2="100%" id="SvgjsLinearGradient1134"><stop stop-color="rgba(218, 65, 103, 0)" offset="0"></stop><stop stop-color="rgba(218, 65, 103, 0.3)" offset="1"></stop></linearGradient></defs></svg>