<svg xmlns="http://www.w3.org/2000/svg" version="1.1" xmlns:xlink="http://www.w3.org/1999/xlink" xmlns:svgjs="http://svgjs.com/svgjs" width="1920" height="800" preserveAspectRatio="none" viewBox="0 0 1920 800"><g mask="url(&quot;#SvgjsMask1087&quot;)" fill="none"><rect width="1920" height="800" x="0" y="0" fill="rgba(61, 38, 69, 1)"></rect><path d="M1737 727L1965 955" stroke-width="10" stroke="url(#SvgjsLinearGradient1088)" stroke-linecap="round" class="TopLeft"></path><path d="M266 334L752 820" stroke-width="8" stroke="url(#SvgjsLinearGradient1088)" stroke-linecap="round" class="TopLeft"></path><path d="M529 685L291 447" stroke-width="10" stroke="url(#SvgjsLinearGradient1089)" stroke-linecap="round" class="BottomRight"></path><path d="M1333 390L969 26" stroke-width="10" stroke="url(#SvgjsLinearGradient1089)" stroke-linecap="round" class="BottomRight"></path><path d="M1494 739L1855 1100" stroke-width="8" stroke="url(#SvgjsLinearGradient1089)" stroke-linecap="round" class="BottomRight"></path><path d="M1064 783L1632 1351" stroke-width="6" stroke="url(#SvgjsLinearGradient1088)" stroke-linecap="round" class="TopLeft"></path><path d="M411 512L720 821" stroke-width="10" stroke="url(#SvgjsLinearGradient1089)" stroke-linecap="round" class="BottomRight"></path><path d="M89 498L376 785" stroke-width="8" stroke="url(#SvgjsLinearGradient1088)" stroke-linecap="round" class="TopLeft"></path><path d="M1758 225L1537 4" stroke-width="8" stroke="url(#SvgjsLinearGradient1089)" stroke-linecap="round" class="BottomRight"></path><path d="M375 449L652 726" stroke-width="8" stroke="url(#SvgjsLinearGradient1089)" stroke-linecap="round" class="BottomRight"></path><path d="M1215 372L726 -117" stroke-width="10" stroke="url(#SvgjsLinearGradient1088)" stroke-linecap="round" class="TopLeft"></path><path d="M30 574L629 1173" stroke-width="10" stroke="url(#SvgjsLinearGradient1089)" stroke-linecap="round" class="BottomRight"></path><path d="M853 197L1097 441" stroke-width="10" stroke="url(#SvgjsLinearGradient1088)" stroke-linecap="round" class="TopLeft"></path><path d="M1758 733L1966 941" stroke-width="10" stroke="url(#SvgjsLinearGradient1088)" stroke-linecap="round" class="TopLeft"></path><path d="M869 396L1232 759" stroke-width="10" stroke="url(#SvgjsLinearGradient1089)" stroke-linecap="round" class="BottomRight"></path><path d="M1501 715L2047 1261" stroke-width="8" stroke="url(#SvgjsLinearGradient1089)" stroke-linecap="round" class="BottomRight"></path><path d="M228 20L-231 -439" stroke-width="8" stroke="url(#SvgjsLinearGradient1088)" stroke-linecap="round" class="TopLeft"></path><path d="M1727 732L1316 321" stroke-width="6" stroke="url(#SvgjsLinearGradient1089)" stroke-linecap="round" class="BottomRight"></path><path d="M595 766L193 364" stroke-width="10" stroke="url(#SvgjsLinearGradient1088)" stroke-linecap="round" class="TopLeft"></path><path d="M1077 137L1590 650" stroke-width="8" stroke="url(#SvgjsLinearGradient1089)" stroke-linecap="round" class="BottomRight"></path><path d="M1318 632L1854 1168" stroke-width="10" stroke="url(#SvgjsLinearGradient1088)" stroke-linecap="round" class="TopLeft"></path><path d="M18 47L-443 -414" stroke-width="6" stroke="url(#SvgjsLinearGradient1089)" stroke-linecap="round" class="BottomRight"></path><path d="M297 142L888 733" stroke-width="10" stroke="url(#SvgjsLinearGradient1089)" stroke-linecap="round" class="BottomRight"></path><path d="M1610 240L1224 -146" stroke-width="10" stroke="url(#SvgjsLinearGradient1088)" stroke-linecap="round" class="TopLeft"></path><path d="M1665 547L1464 346" stroke-width="8" stroke="url(#SvgjsLinearGradient1088)" stroke-linecap="round" class="TopLeft"></path><path d="M1766 112L2318 664" stroke-width="6" stroke="url(#SvgjsLinearGradient1089)" stroke-linecap="round" class="BottomRight"></path><path d="M573 265L354 46" stroke-width="10" stroke="url(#SvgjsLinearGradient1089)" stroke-linecap="round" class="BottomRight"></path><path d="M1851 701L2051 901" stroke-width="8" stroke="url(#SvgjsLinearGradient1088)" stroke-linecap="round" class="TopLeft"></path><path d="M808 389L1129 710" stroke-width="6" stroke="url(#SvgjsLinearGradient1089)" stroke-linecap="round" class="BottomRight"></path><path d="M1905 386L2482 963" stroke-width="6" stroke="url(#SvgjsLinearGradient1089)" stroke-linecap="round" class="BottomRight"></path><path d="M1269 554L1764 1049" stroke-width="8" stroke="url(#SvgjsLinearGradient1089)" stroke-linecap="round" class="BottomRight"></path><path d="M864 788L341 265" stroke-width="6" stroke="url(#SvgjsLinearGradient1089)" stroke-linecap="round" class="BottomRight"></path><path d="M112 298L-238 -52" stroke-width="6" stroke="url(#SvgjsLinearGradient1089)" stroke-linecap="round" class="BottomRight"></path><path d="M530 161L1081 712" stroke-width="8" stroke="url(#SvgjsLinearGradient1088)" stroke-linecap="round" class="TopLeft"></path><path d="M629 796L959 1126" stroke-width="10" stroke="url(#SvgjsLinearGradient1088)" stroke-linecap="round" class="TopLeft"></path><path d="M693 17L239 -437" stroke-width="10" stroke="url(#SvgjsLinearGradient1089)" stroke-linecap="round" class="BottomRight"></path><path d="M1851 514L2446 1109" stroke-width="6" stroke="url(#SvgjsLinearGradient1089)" stroke-linecap="round" class="BottomRight"></path><path d="M1327 723L1767 1163" stroke-width="6" stroke="url(#SvgjsLinearGradient1088)" stroke-linecap="round" class="TopLeft"></path><path d="M488 708L-102 118" stroke-width="10" stroke="url(#SvgjsLinearGradient1088)" stroke-linecap="round" class="TopLeft"></path><path d="M1534 302L1033 -199" stroke-width="6" stroke="url(#SvgjsLinearGradient1089)" stroke-linecap="round" class="BottomRight"></path><path d="M403 193L887 677" stroke-width="8" stroke="url(#SvgjsLinearGradient1089)" stroke-linecap="round" class="BottomRight"></path><path d="M693 21L295 -377" stroke-width="8" stroke="url(#SvgjsLinearGradient1088)" stroke-linecap="round" class="TopLeft"></path><path d="M1220 405L1462 647" stroke-width="8" stroke="url(#SvgjsLinearGradient1088)" stroke-linecap="round" class="TopLeft"></path><path d="M1020 38L539 -443" stroke-width="8" stroke="url(#SvgjsLinearGradient1089)" stroke-linecap="round" class="BottomRight"></path><path d="M88 744L300 956" stroke-width="10" stroke="url(#SvgjsLinearGradient1089)" stroke-linecap="round" class="BottomRight"></path><path d="M1042 768L1385 1111" stroke-width="6" stroke="url(#SvgjsLinearGradient1088)" stroke-linecap="round" class="TopLeft"></path><path d="M187 654L525 992" stroke-width="6" stroke="url(#SvgjsLinearGradient1089)" stroke-linecap="round" class="BottomRight"></path><path d="M1730 657L1515 442" stroke-width="8" stroke="url(#SvgjsLinearGradient1089)" stroke-linecap="round" class="BottomRight"></path><path d="M732 92L463 -177" stroke-width="8" stroke="url(#SvgjsLinearGradient1088)" stroke-linecap="round" class="TopLeft"></path><path d="M258 491L727 960" stroke-width="8" stroke="url(#SvgjsLinearGradient1088)" stroke-linecap="round" class="TopLeft"></path><path d="M1336 77L1906 647" stroke-width="10" stroke="url(#SvgjsLinearGradient1089)" stroke-linecap="round" class="BottomRight"></path><path d="M1002 777L511 286" stroke-width="10" stroke="url(#SvgjsLinearGradient1089)" stroke-linecap="round" class="BottomRight"></path></g><defs><mask id="SvgjsMask1087"><rect width="1920" height="800" fill="#ffffff"></rect></mask><linearGradient x1="100%" y1="100%" x2="0%" y2="0%" id="SvgjsLinearGradient1088"><stop stop-color="rgba(218, 65, 103, 0)" offset="0"></stop><stop stop-color="rgba(218, 65, 103, 0.3)" offset="1"></stop></linearGradient><linearGradient x1="0%" y1="0%" x2="100%" y2="100%" id="SvgjsLinearGradient1089"><stop stop-color="rgba(218, 65, 103, 0)" offset="0"></stop><stop stop-color="rgba(218, 65, 103, 0.3)" offset="1"></stop></linearGradient></defs></svg>