<svg xmlns="http://www.w3.org/2000/svg" version="1.1" xmlns:xlink="http://www.w3.org/1999/xlink" xmlns:svgjs="http://svgjs.com/svgjs" width="1920" height="800" preserveAspectRatio="none" viewBox="0 0 1920 800"><g mask="url(&quot;#SvgjsMask1105&quot;)" fill="none"><rect width="1920" height="800" x="0" y="0" fill="rgba(61, 38, 69, 1)"></rect><path d="M1128 713L1337 504" stroke-width="8" stroke="url(#SvgjsLinearGradient1106)" stroke-linecap="round" class="BottomLeft"></path><path d="M1724 232L2149 -193" stroke-width="10" stroke="url(#SvgjsLinearGradient1106)" stroke-linecap="round" class="BottomLeft"></path><path d="M1581 441L1359 663" stroke-width="8" stroke="url(#SvgjsLinearGradient1107)" stroke-linecap="round" class="TopRight"></path><path d="M884 561L394 1051" stroke-width="10" stroke="url(#SvgjsLinearGradient1106)" stroke-linecap="round" class="BottomLeft"></path><path d="M287 759L732 314" stroke-width="6" stroke="url(#SvgjsLinearGradient1107)" stroke-linecap="round" class="TopRight"></path><path d="M337 743L9 1071" stroke-width="8" stroke="url(#SvgjsLinearGradient1106)" stroke-linecap="round" class="BottomLeft"></path><path d="M393 691L36 1048" stroke-width="6" stroke="url(#SvgjsLinearGradient1106)" stroke-linecap="round" class="BottomLeft"></path><path d="M1590 750L1910 430" stroke-width="8" stroke="url(#SvgjsLinearGradient1107)" stroke-linecap="round" class="TopRight"></path><path d="M1032 68L600 500" stroke-width="6" stroke="url(#SvgjsLinearGradient1106)" stroke-linecap="round" class="BottomLeft"></path><path d="M950 447L748 649" stroke-width="8" stroke="url(#SvgjsLinearGradient1107)" stroke-linecap="round" class="TopRight"></path><path d="M1885 209L1417 677" stroke-width="10" stroke="url(#SvgjsLinearGradient1106)" stroke-linecap="round" class="BottomLeft"></path><path d="M1237 275L1567 -55" stroke-width="8" stroke="url(#SvgjsLinearGradient1106)" stroke-linecap="round" class="BottomLeft"></path><path d="M1597 171L2114 -346" stroke-width="8" stroke="url(#SvgjsLinearGradient1107)" stroke-linecap="round" class="TopRight"></path><path d="M987 220L619 588" stroke-width="8" stroke="url(#SvgjsLinearGradient1107)" stroke-linecap="round" class="TopRight"></path><path d="M1870 688L2330 228" stroke-width="10" stroke="url(#SvgjsLinearGradient1106)" stroke-linecap="round" class="BottomLeft"></path><path d="M215 255L-150 620" stroke-width="6" stroke="url(#SvgjsLinearGradient1106)" stroke-linecap="round" class="BottomLeft"></path><path d="M982 634L473 1143" stroke-width="8" stroke="url(#SvgjsLinearGradient1107)" stroke-linecap="round" class="TopRight"></path><path d="M459 226L239 446" stroke-width="10" stroke="url(#SvgjsLinearGradient1107)" stroke-linecap="round" class="TopRight"></path><path d="M1103 432L1551 -16" stroke-width="8" stroke="url(#SvgjsLinearGradient1106)" stroke-linecap="round" class="BottomLeft"></path><path d="M1710 610L2135 185" stroke-width="8" stroke="url(#SvgjsLinearGradient1106)" stroke-linecap="round" class="BottomLeft"></path><path d="M628 238L911 -45" stroke-width="10" stroke="url(#SvgjsLinearGradient1106)" stroke-linecap="round" class="BottomLeft"></path><path d="M385 215L128 472" stroke-width="10" stroke="url(#SvgjsLinearGradient1107)" stroke-linecap="round" class="TopRight"></path><path d="M879 434L1344 -31" stroke-width="8" stroke="url(#SvgjsLinearGradient1106)" stroke-linecap="round" class="BottomLeft"></path><path d="M1582 567L2090 59" stroke-width="10" stroke="url(#SvgjsLinearGradient1106)" stroke-linecap="round" class="BottomLeft"></path><path d="M404 324L8 720" stroke-width="6" stroke="url(#SvgjsLinearGradient1107)" stroke-linecap="round" class="TopRight"></path><path d="M1373 334L1755 -48" stroke-width="8" stroke="url(#SvgjsLinearGradient1106)" stroke-linecap="round" class="BottomLeft"></path><path d="M534 357L870 21" stroke-width="6" stroke="url(#SvgjsLinearGradient1106)" stroke-linecap="round" class="BottomLeft"></path><path d="M918 293L1261 -50" stroke-width="10" stroke="url(#SvgjsLinearGradient1106)" stroke-linecap="round" class="BottomLeft"></path><path d="M1793 781L1373 1201" stroke-width="10" stroke="url(#SvgjsLinearGradient1107)" stroke-linecap="round" class="TopRight"></path><path d="M30 44L-548 622" stroke-width="10" stroke="url(#SvgjsLinearGradient1107)" stroke-linecap="round" class="TopRight"></path><path d="M1045 568L516 1097" stroke-width="10" stroke="url(#SvgjsLinearGradient1106)" stroke-linecap="round" class="BottomLeft"></path><path d="M1267 280L1767 -220" stroke-width="10" stroke="url(#SvgjsLinearGradient1107)" stroke-linecap="round" class="TopRight"></path><path d="M276 578L631 223" stroke-width="8" stroke="url(#SvgjsLinearGradient1106)" stroke-linecap="round" class="BottomLeft"></path><path d="M826 150L1132 -156" stroke-width="6" stroke="url(#SvgjsLinearGradient1107)" stroke-linecap="round" class="TopRight"></path><path d="M1344 601L1037 908" stroke-width="8" stroke="url(#SvgjsLinearGradient1107)" stroke-linecap="round" class="TopRight"></path><path d="M958 776L710 1024" stroke-width="8" stroke="url(#SvgjsLinearGradient1106)" stroke-linecap="round" class="BottomLeft"></path><path d="M511 255L168 598" stroke-width="10" stroke="url(#SvgjsLinearGradient1106)" stroke-linecap="round" class="BottomLeft"></path><path d="M1423 165L1103 485" stroke-width="10" stroke="url(#SvgjsLinearGradient1106)" stroke-linecap="round" class="BottomLeft"></path><path d="M1322 547L759 1110" stroke-width="8" stroke="url(#SvgjsLinearGradient1107)" stroke-linecap="round" class="TopRight"></path><path d="M1484 662L934 1212" stroke-width="8" stroke="url(#SvgjsLinearGradient1107)" stroke-linecap="round" class="TopRight"></path><path d="M1201 534L1412 323" stroke-width="8" stroke="url(#SvgjsLinearGradient1107)" stroke-linecap="round" class="TopRight"></path><path d="M1685 565L1443 807" stroke-width="8" stroke="url(#SvgjsLinearGradient1106)" stroke-linecap="round" class="BottomLeft"></path><path d="M365 732L867 230" stroke-width="6" stroke="url(#SvgjsLinearGradient1107)" stroke-linecap="round" class="TopRight"></path><path d="M1154 721L1405 470" stroke-width="8" stroke="url(#SvgjsLinearGradient1106)" stroke-linecap="round" class="BottomLeft"></path><path d="M40 122L-525 687" stroke-width="6" stroke="url(#SvgjsLinearGradient1107)" stroke-linecap="round" class="TopRight"></path><path d="M1380 707L953 1134" stroke-width="6" stroke="url(#SvgjsLinearGradient1107)" stroke-linecap="round" class="TopRight"></path><path d="M478 565L979 64" stroke-width="8" stroke="url(#SvgjsLinearGradient1106)" stroke-linecap="round" class="BottomLeft"></path><path d="M1197 353L634 916" stroke-width="8" stroke="url(#SvgjsLinearGradient1106)" stroke-linecap="round" class="BottomLeft"></path><path d="M1 436L-355 792" stroke-width="10" stroke="url(#SvgjsLinearGradient1107)" stroke-linecap="round" class="TopRight"></path><path d="M610 690L887 413" stroke-width="8" stroke="url(#SvgjsLinearGradient1106)" stroke-linecap="round" class="BottomLeft"></path><path d="M1213 509L733 989" stroke-width="10" stroke="url(#SvgjsLinearGradient1106)" stroke-linecap="round" class="BottomLeft"></path><path d="M523 219L917 -175" stroke-width="8" stroke="url(#SvgjsLinearGradient1106)" stroke-linecap="round" class="BottomLeft"></path></g><defs><mask id="SvgjsMask1105"><rect width="1920" height="800" fill="#ffffff"></rect></mask><linearGradient x1="100%" y1="0%" x2="0%" y2="100%" id="SvgjsLinearGradient1106"><stop stop-color="rgba(218, 65, 103, 0)" offset="0"></stop><stop stop-color="rgba(218, 65, 103, 0.3)" offset="1"></stop></linearGradient><linearGradient x1="0%" y1="100%" x2="100%" y2="0%" id="SvgjsLinearGradient1107"><stop stop-color="rgba(218, 65, 103, 0)" offset="0"></stop><stop stop-color="rgba(218, 65, 103, 0.3)" offset="1"></stop></linearGradient></defs></svg>