<svg xmlns="http://www.w3.org/2000/svg" version="1.1" xmlns:xlink="http://www.w3.org/1999/xlink" xmlns:svgjs="http://svgjs.com/svgjs" width="1920" height="800" preserveAspectRatio="none" viewBox="0 0 1920 800"><g mask="url(&quot;#SvgjsMask1077&quot;)" fill="none"><rect width="1920" height="800" x="0" y="0" fill="rgba(18, 18, 18, 1)"></rect><path d="M366 590L92 316" stroke-width="8" stroke="url(#SvgjsLinearGradient1078)" stroke-linecap="round" class="TopLeft"></path><path d="M955 673L1375 1093" stroke-width="10" stroke="url(#SvgjsLinearGradient1078)" stroke-linecap="round" class="TopLeft"></path><path d="M216 677L418 879" stroke-width="8" stroke="url(#SvgjsLinearGradient1078)" stroke-linecap="round" class="TopLeft"></path><path d="M1608 551L1034 -23" stroke-width="10" stroke="url(#SvgjsLinearGradient1079)" stroke-linecap="round" class="BottomRight"></path><path d="M5 192L-451 -264" stroke-width="6" stroke="url(#SvgjsLinearGradient1079)" stroke-linecap="round" class="BottomRight"></path><path d="M1086 595L1530 1039" stroke-width="8" stroke="url(#SvgjsLinearGradient1079)" stroke-linecap="round" class="BottomRight"></path><path d="M1653 763L1111 221" stroke-width="10" stroke="url(#SvgjsLinearGradient1078)" stroke-linecap="round" class="TopLeft"></path><path d="M1801 404L1299 -98" stroke-width="6" stroke="url(#SvgjsLinearGradient1079)" stroke-linecap="round" class="BottomRight"></path><path d="M1572 305L1045 -222" stroke-width="10" stroke="url(#SvgjsLinearGradient1079)" stroke-linecap="round" class="BottomRight"></path><path d="M866 506L1421 1061" stroke-width="6" stroke="url(#SvgjsLinearGradient1079)" stroke-linecap="round" class="BottomRight"></path><path d="M712 715L284 287" stroke-width="8" stroke="url(#SvgjsLinearGradient1079)" stroke-linecap="round" class="BottomRight"></path><path d="M369 757L120 508" stroke-width="6" stroke="url(#SvgjsLinearGradient1078)" stroke-linecap="round" class="TopLeft"></path><path d="M571 267L155 -149" stroke-width="8" stroke="url(#SvgjsLinearGradient1079)" stroke-linecap="round" class="BottomRight"></path><path d="M1448 300L1212 64" stroke-width="8" stroke="url(#SvgjsLinearGradient1079)" stroke-linecap="round" class="BottomRight"></path><path d="M979 173L652 -154" stroke-width="8" stroke="url(#SvgjsLinearGradient1078)" stroke-linecap="round" class="TopLeft"></path><path d="M427 15L791 379" stroke-width="8" stroke="url(#SvgjsLinearGradient1079)" stroke-linecap="round" class="BottomRight"></path><path d="M542 333L77 -132" stroke-width="6" stroke="url(#SvgjsLinearGradient1079)" stroke-linecap="round" class="BottomRight"></path><path d="M946 84L726 -136" stroke-width="8" stroke="url(#SvgjsLinearGradient1078)" stroke-linecap="round" class="TopLeft"></path><path d="M405 709L705 1009" stroke-width="6" stroke="url(#SvgjsLinearGradient1078)" stroke-linecap="round" class="TopLeft"></path><path d="M1726 301L1993 568" stroke-width="10" stroke="url(#SvgjsLinearGradient1079)" stroke-linecap="round" class="BottomRight"></path><path d="M181 623L-81 361" stroke-width="10" stroke="url(#SvgjsLinearGradient1078)" stroke-linecap="round" class="TopLeft"></path><path d="M69 150L-344 -263" stroke-width="8" stroke="url(#SvgjsLinearGradient1078)" stroke-linecap="round" class="TopLeft"></path><path d="M1674 69L2116 511" stroke-width="6" stroke="url(#SvgjsLinearGradient1078)" stroke-linecap="round" class="TopLeft"></path><path d="M1680 427L2159 906" stroke-width="6" stroke="url(#SvgjsLinearGradient1078)" stroke-linecap="round" class="TopLeft"></path><path d="M756 552L405 201" stroke-width="10" stroke="url(#SvgjsLinearGradient1078)" stroke-linecap="round" class="TopLeft"></path><path d="M196 735L-129 410" stroke-width="8" stroke="url(#SvgjsLinearGradient1078)" stroke-linecap="round" class="TopLeft"></path><path d="M154 318L660 824" stroke-width="6" stroke="url(#SvgjsLinearGradient1079)" stroke-linecap="round" class="BottomRight"></path><path d="M676 23L114 -539" stroke-width="8" stroke="url(#SvgjsLinearGradient1079)" stroke-linecap="round" class="BottomRight"></path><path d="M1473 159L2009 695" stroke-width="10" stroke="url(#SvgjsLinearGradient1079)" stroke-linecap="round" class="BottomRight"></path><path d="M1537 343L1207 13" stroke-width="8" stroke="url(#SvgjsLinearGradient1078)" stroke-linecap="round" class="TopLeft"></path><path d="M1701 437L1240 -24" stroke-width="10" stroke="url(#SvgjsLinearGradient1079)" stroke-linecap="round" class="BottomRight"></path><path d="M1326 642L1703 1019" stroke-width="6" stroke="url(#SvgjsLinearGradient1079)" stroke-linecap="round" class="BottomRight"></path><path d="M1376 637L1902 1163" stroke-width="10" stroke="url(#SvgjsLinearGradient1079)" stroke-linecap="round" class="BottomRight"></path><path d="M1678 792L2143 1257" stroke-width="8" stroke="url(#SvgjsLinearGradient1079)" stroke-linecap="round" class="BottomRight"></path><path d="M1897 601L1455 159" stroke-width="10" stroke="url(#SvgjsLinearGradient1078)" stroke-linecap="round" class="TopLeft"></path><path d="M1562 76L1847 361" stroke-width="6" stroke="url(#SvgjsLinearGradient1079)" stroke-linecap="round" class="BottomRight"></path><path d="M1273 751L918 396" stroke-width="10" stroke="url(#SvgjsLinearGradient1078)" stroke-linecap="round" class="TopLeft"></path><path d="M1736 643L1959 866" stroke-width="6" stroke="url(#SvgjsLinearGradient1079)" stroke-linecap="round" class="BottomRight"></path><path d="M216 97L-354 -473" stroke-width="6" stroke="url(#SvgjsLinearGradient1078)" stroke-linecap="round" class="TopLeft"></path><path d="M1369 739L951 321" stroke-width="10" stroke="url(#SvgjsLinearGradient1079)" stroke-linecap="round" class="BottomRight"></path><path d="M1579 126L1211 -242" stroke-width="10" stroke="url(#SvgjsLinearGradient1078)" stroke-linecap="round" class="TopLeft"></path><path d="M1343 753L971 381" stroke-width="10" stroke="url(#SvgjsLinearGradient1079)" stroke-linecap="round" class="BottomRight"></path><path d="M870 525L374 29" stroke-width="8" stroke="url(#SvgjsLinearGradient1078)" stroke-linecap="round" class="TopLeft"></path><path d="M1061 85L783 -193" stroke-width="6" stroke="url(#SvgjsLinearGradient1079)" stroke-linecap="round" class="BottomRight"></path><path d="M1029 177L444 -408" stroke-width="8" stroke="url(#SvgjsLinearGradient1078)" stroke-linecap="round" class="TopLeft"></path><path d="M1166 612L1728 1174" stroke-width="6" stroke="url(#SvgjsLinearGradient1078)" stroke-linecap="round" class="TopLeft"></path><path d="M179 479L-337 -37" stroke-width="6" stroke="url(#SvgjsLinearGradient1078)" stroke-linecap="round" class="TopLeft"></path><path d="M1853 456L2321 924" stroke-width="10" stroke="url(#SvgjsLinearGradient1079)" stroke-linecap="round" class="BottomRight"></path><path d="M84 136L-264 -212" stroke-width="6" stroke="url(#SvgjsLinearGradient1079)" stroke-linecap="round" class="BottomRight"></path><path d="M695 716L1072 1093" stroke-width="8" stroke="url(#SvgjsLinearGradient1078)" stroke-linecap="round" class="TopLeft"></path><path d="M590 430L933 773" stroke-width="10" stroke="url(#SvgjsLinearGradient1078)" stroke-linecap="round" class="TopLeft"></path><path d="M1229 158L802 -269" stroke-width="6" stroke="url(#SvgjsLinearGradient1078)" stroke-linecap="round" class="TopLeft"></path></g><defs><mask id="SvgjsMask1077"><rect width="1920" height="800" fill="#ffffff"></rect></mask><linearGradient x1="100%" y1="100%" x2="0%" y2="0%" id="SvgjsLinearGradient1078"><stop stop-color="rgba(218, 65, 103, 0)" offset="0"></stop><stop stop-color="rgba(218, 65, 103, 0.4)" offset="1"></stop></linearGradient><linearGradient x1="0%" y1="0%" x2="100%" y2="100%" id="SvgjsLinearGradient1079"><stop stop-color="rgba(218, 65, 103, 0)" offset="0"></stop><stop stop-color="rgba(218, 65, 103, 0.4)" offset="1"></stop></linearGradient></defs></svg>