<svg xmlns="http://www.w3.org/2000/svg" version="1.1" xmlns:xlink="http://www.w3.org/1999/xlink" xmlns:svgjs="http://svgjs.com/svgjs" width="1920" height="1000" preserveAspectRatio="none" viewBox="0 0 1920 1000"><g mask="url(&quot;#SvgjsMask1063&quot;)" fill="none"><rect width="1920" height="1000" x="0" y="0" fill="rgba(18, 18, 18, 1)"></rect><path d="M1402 821L1819 1238" stroke-width="10" stroke="url(#SvgjsLinearGradient1064)" stroke-linecap="round" class="BottomRight"></path><path d="M1174 429L1785 1040" stroke-width="10" stroke="url(#SvgjsLinearGradient1064)" stroke-linecap="round" class="BottomRight"></path><path d="M257 404L-184 -37" stroke-width="6" stroke="url(#SvgjsLinearGradient1064)" stroke-linecap="round" class="BottomRight"></path><path d="M1580 835L1236 491" stroke-width="10" stroke="url(#SvgjsLinearGradient1064)" stroke-linecap="round" class="BottomRight"></path><path d="M637 798L1021 1182" stroke-width="10" stroke="url(#SvgjsLinearGradient1065)" stroke-linecap="round" class="TopLeft"></path><path d="M74 932L-540 318" stroke-width="8" stroke="url(#SvgjsLinearGradient1065)" stroke-linecap="round" class="TopLeft"></path><path d="M789 103L368 -318" stroke-width="6" stroke="url(#SvgjsLinearGradient1064)" stroke-linecap="round" class="BottomRight"></path><path d="M903 121L1411 629" stroke-width="10" stroke="url(#SvgjsLinearGradient1064)" stroke-linecap="round" class="BottomRight"></path><path d="M720 186L65 -469" stroke-width="10" stroke="url(#SvgjsLinearGradient1065)" stroke-linecap="round" class="TopLeft"></path><path d="M813 112L331 -370" stroke-width="8" stroke="url(#SvgjsLinearGradient1065)" stroke-linecap="round" class="TopLeft"></path><path d="M610 15L1159 564" stroke-width="6" stroke="url(#SvgjsLinearGradient1064)" stroke-linecap="round" class="BottomRight"></path><path d="M100 418L487 805" stroke-width="10" stroke="url(#SvgjsLinearGradient1064)" stroke-linecap="round" class="BottomRight"></path><path d="M1907 508L1471 72" stroke-width="8" stroke="url(#SvgjsLinearGradient1064)" stroke-linecap="round" class="BottomRight"></path><path d="M1005 358L1567 920" stroke-width="10" stroke="url(#SvgjsLinearGradient1065)" stroke-linecap="round" class="TopLeft"></path><path d="M711 769L1016 1074" stroke-width="8" stroke="url(#SvgjsLinearGradient1064)" stroke-linecap="round" class="BottomRight"></path><path d="M1040 585L768 313" stroke-width="10" stroke="url(#SvgjsLinearGradient1065)" stroke-linecap="round" class="TopLeft"></path><path d="M1645 198L1138 -309" stroke-width="10" stroke="url(#SvgjsLinearGradient1064)" stroke-linecap="round" class="BottomRight"></path><path d="M1403 959L877 433" stroke-width="8" stroke="url(#SvgjsLinearGradient1065)" stroke-linecap="round" class="TopLeft"></path><path d="M822 133L1217 528" stroke-width="6" stroke="url(#SvgjsLinearGradient1065)" stroke-linecap="round" class="TopLeft"></path><path d="M1351 177L639 -535" stroke-width="6" stroke="url(#SvgjsLinearGradient1065)" stroke-linecap="round" class="TopLeft"></path><path d="M1064 619L1323 878" stroke-width="10" stroke="url(#SvgjsLinearGradient1065)" stroke-linecap="round" class="TopLeft"></path><path d="M845 113L1363 631" stroke-width="6" stroke="url(#SvgjsLinearGradient1065)" stroke-linecap="round" class="TopLeft"></path><path d="M1650 976L2391 1717" stroke-width="8" stroke="url(#SvgjsLinearGradient1064)" stroke-linecap="round" class="BottomRight"></path><path d="M892 1000L1214 1322" stroke-width="8" stroke="url(#SvgjsLinearGradient1064)" stroke-linecap="round" class="BottomRight"></path><path d="M1206 918L753 465" stroke-width="6" stroke="url(#SvgjsLinearGradient1065)" stroke-linecap="round" class="TopLeft"></path><path d="M61 317L443 699" stroke-width="10" stroke="url(#SvgjsLinearGradient1064)" stroke-linecap="round" class="BottomRight"></path><path d="M1483 814L1741 1072" stroke-width="8" stroke="url(#SvgjsLinearGradient1065)" stroke-linecap="round" class="TopLeft"></path><path d="M477 292L1068 883" stroke-width="10" stroke="url(#SvgjsLinearGradient1065)" stroke-linecap="round" class="TopLeft"></path><path d="M307 551L883 1127" stroke-width="6" stroke="url(#SvgjsLinearGradient1065)" stroke-linecap="round" class="TopLeft"></path><path d="M1898 656L2317 1075" stroke-width="6" stroke="url(#SvgjsLinearGradient1065)" stroke-linecap="round" class="TopLeft"></path><path d="M852 998L482 628" stroke-width="8" stroke="url(#SvgjsLinearGradient1064)" stroke-linecap="round" class="BottomRight"></path><path d="M868 853L1493 1478" stroke-width="6" stroke="url(#SvgjsLinearGradient1064)" stroke-linecap="round" class="BottomRight"></path><path d="M1579 645L2225 1291" stroke-width="8" stroke="url(#SvgjsLinearGradient1064)" stroke-linecap="round" class="BottomRight"></path><path d="M759 266L1368 875" stroke-width="6" stroke="url(#SvgjsLinearGradient1065)" stroke-linecap="round" class="TopLeft"></path><path d="M623 367L128 -128" stroke-width="10" stroke="url(#SvgjsLinearGradient1064)" stroke-linecap="round" class="BottomRight"></path><path d="M1393 193L1788 588" stroke-width="10" stroke="url(#SvgjsLinearGradient1064)" stroke-linecap="round" class="BottomRight"></path><path d="M1805 662L2331 1188" stroke-width="6" stroke="url(#SvgjsLinearGradient1065)" stroke-linecap="round" class="TopLeft"></path><path d="M1335 9L865 -461" stroke-width="6" stroke="url(#SvgjsLinearGradient1064)" stroke-linecap="round" class="BottomRight"></path><path d="M871 460L1320 909" stroke-width="8" stroke="url(#SvgjsLinearGradient1065)" stroke-linecap="round" class="TopLeft"></path><path d="M1026 698L1419 1091" stroke-width="8" stroke="url(#SvgjsLinearGradient1065)" stroke-linecap="round" class="TopLeft"></path><path d="M137 753L841 1457" stroke-width="8" stroke="url(#SvgjsLinearGradient1065)" stroke-linecap="round" class="TopLeft"></path><path d="M466 787L-54 267" stroke-width="6" stroke="url(#SvgjsLinearGradient1064)" stroke-linecap="round" class="BottomRight"></path><path d="M1201 8L676 -517" stroke-width="6" stroke="url(#SvgjsLinearGradient1064)" stroke-linecap="round" class="BottomRight"></path><path d="M1693 400L2352 1059" stroke-width="8" stroke="url(#SvgjsLinearGradient1064)" stroke-linecap="round" class="BottomRight"></path><path d="M414 468L770 824" stroke-width="8" stroke="url(#SvgjsLinearGradient1064)" stroke-linecap="round" class="BottomRight"></path><path d="M332 635L1054 1357" stroke-width="6" stroke="url(#SvgjsLinearGradient1065)" stroke-linecap="round" class="TopLeft"></path><path d="M921 516L281 -124" stroke-width="6" stroke="url(#SvgjsLinearGradient1064)" stroke-linecap="round" class="BottomRight"></path><path d="M1733 854L1320 441" stroke-width="6" stroke="url(#SvgjsLinearGradient1065)" stroke-linecap="round" class="TopLeft"></path><path d="M1282 822L1657 1197" stroke-width="6" stroke="url(#SvgjsLinearGradient1064)" stroke-linecap="round" class="BottomRight"></path><path d="M1250 530L1570 850" stroke-width="6" stroke="url(#SvgjsLinearGradient1065)" stroke-linecap="round" class="TopLeft"></path><path d="M186 634L608 1056" stroke-width="8" stroke="url(#SvgjsLinearGradient1065)" stroke-linecap="round" class="TopLeft"></path><path d="M1886 953L2567 1634" stroke-width="8" stroke="url(#SvgjsLinearGradient1064)" stroke-linecap="round" class="BottomRight"></path><path d="M858 666L123 -69" stroke-width="10" stroke="url(#SvgjsLinearGradient1065)" stroke-linecap="round" class="TopLeft"></path><path d="M469 894L993 1418" stroke-width="6" stroke="url(#SvgjsLinearGradient1064)" stroke-linecap="round" class="BottomRight"></path><path d="M1081 687L335 -59" stroke-width="6" stroke="url(#SvgjsLinearGradient1064)" stroke-linecap="round" class="BottomRight"></path></g><defs><mask id="SvgjsMask1063"><rect width="1920" height="1000" fill="#ffffff"></rect></mask><linearGradient x1="0%" y1="0%" x2="100%" y2="100%" id="SvgjsLinearGradient1064"><stop stop-color="rgba(41, 41, 42, 0)" offset="0"></stop><stop stop-color="rgba(41, 41, 42, 1)" offset="1"></stop></linearGradient><linearGradient x1="100%" y1="100%" x2="0%" y2="0%" id="SvgjsLinearGradient1065"><stop stop-color="rgba(41, 41, 42, 0)" offset="0"></stop><stop stop-color="rgba(41, 41, 42, 1)" offset="1"></stop></linearGradient></defs></svg>