<svg xmlns="http://www.w3.org/2000/svg" version="1.1" xmlns:xlink="http://www.w3.org/1999/xlink" xmlns:svgjs="http://svgjs.com/svgjs" width="1920" height="1000" preserveAspectRatio="none" viewBox="0 0 1920 1000"><g mask="url(&quot;#SvgjsMask1051&quot;)" fill="none"><rect width="1920" height="1000" x="0" y="0" fill="rgba(18, 18, 18, 1)"></rect><path d="M337 762L34 1065" stroke-width="10" stroke="url(#SvgjsLinearGradient1052)" stroke-linecap="round" class="BottomLeft"></path><path d="M1175 582L833 924" stroke-width="10" stroke="url(#SvgjsLinearGradient1052)" stroke-linecap="round" class="BottomLeft"></path><path d="M1676 975L1053 1598" stroke-width="8" stroke="url(#SvgjsLinearGradient1053)" stroke-linecap="round" class="TopRight"></path><path d="M1005 221L652 574" stroke-width="10" stroke="url(#SvgjsLinearGradient1053)" stroke-linecap="round" class="TopRight"></path><path d="M1243 883L1743 383" stroke-width="8" stroke="url(#SvgjsLinearGradient1052)" stroke-linecap="round" class="BottomLeft"></path><path d="M1576 966L2124 418" stroke-width="8" stroke="url(#SvgjsLinearGradient1052)" stroke-linecap="round" class="BottomLeft"></path><path d="M1001 703L1490 214" stroke-width="10" stroke="url(#SvgjsLinearGradient1052)" stroke-linecap="round" class="BottomLeft"></path><path d="M885 519L1518 -114" stroke-width="10" stroke="url(#SvgjsLinearGradient1053)" stroke-linecap="round" class="TopRight"></path><path d="M120 272L-471 863" stroke-width="6" stroke="url(#SvgjsLinearGradient1053)" stroke-linecap="round" class="TopRight"></path><path d="M1259 162L1617 -196" stroke-width="8" stroke="url(#SvgjsLinearGradient1053)" stroke-linecap="round" class="TopRight"></path><path d="M878 448L247 1079" stroke-width="6" stroke="url(#SvgjsLinearGradient1053)" stroke-linecap="round" class="TopRight"></path><path d="M1320 324L627 1017" stroke-width="6" stroke="url(#SvgjsLinearGradient1053)" stroke-linecap="round" class="TopRight"></path><path d="M500 448L1088 -140" stroke-width="6" stroke="url(#SvgjsLinearGradient1052)" stroke-linecap="round" class="BottomLeft"></path><path d="M335 50L1056 -671" stroke-width="10" stroke="url(#SvgjsLinearGradient1053)" stroke-linecap="round" class="TopRight"></path><path d="M331 192L-265 788" stroke-width="8" stroke="url(#SvgjsLinearGradient1053)" stroke-linecap="round" class="TopRight"></path><path d="M801 742L242 1301" stroke-width="10" stroke="url(#SvgjsLinearGradient1052)" stroke-linecap="round" class="BottomLeft"></path><path d="M1162 794L1768 188" stroke-width="6" stroke="url(#SvgjsLinearGradient1053)" stroke-linecap="round" class="TopRight"></path><path d="M1017 475L1356 136" stroke-width="6" stroke="url(#SvgjsLinearGradient1052)" stroke-linecap="round" class="BottomLeft"></path><path d="M910 368L1625 -347" stroke-width="8" stroke="url(#SvgjsLinearGradient1053)" stroke-linecap="round" class="TopRight"></path><path d="M996 969L728 1237" stroke-width="8" stroke="url(#SvgjsLinearGradient1053)" stroke-linecap="round" class="TopRight"></path><path d="M692 108L45 755" stroke-width="6" stroke="url(#SvgjsLinearGradient1052)" stroke-linecap="round" class="BottomLeft"></path><path d="M1729 928L1375 1282" stroke-width="10" stroke="url(#SvgjsLinearGradient1053)" stroke-linecap="round" class="TopRight"></path><path d="M361 593L-381 1335" stroke-width="10" stroke="url(#SvgjsLinearGradient1053)" stroke-linecap="round" class="TopRight"></path><path d="M593 855L1323 125" stroke-width="8" stroke="url(#SvgjsLinearGradient1052)" stroke-linecap="round" class="BottomLeft"></path><path d="M690 647L130 1207" stroke-width="6" stroke="url(#SvgjsLinearGradient1052)" stroke-linecap="round" class="BottomLeft"></path><path d="M1320 496L2030 -214" stroke-width="8" stroke="url(#SvgjsLinearGradient1053)" stroke-linecap="round" class="TopRight"></path><path d="M1268 362L1765 -135" stroke-width="8" stroke="url(#SvgjsLinearGradient1052)" stroke-linecap="round" class="BottomLeft"></path><path d="M1106 171L1382 -105" stroke-width="10" stroke="url(#SvgjsLinearGradient1053)" stroke-linecap="round" class="TopRight"></path><path d="M1012 216L1649 -421" stroke-width="10" stroke="url(#SvgjsLinearGradient1052)" stroke-linecap="round" class="BottomLeft"></path><path d="M1579 511L2279 -189" stroke-width="10" stroke="url(#SvgjsLinearGradient1052)" stroke-linecap="round" class="BottomLeft"></path><path d="M1107 0L722 385" stroke-width="10" stroke="url(#SvgjsLinearGradient1053)" stroke-linecap="round" class="TopRight"></path><path d="M1875 139L1212 802" stroke-width="6" stroke="url(#SvgjsLinearGradient1053)" stroke-linecap="round" class="TopRight"></path><path d="M66 79L363 -218" stroke-width="10" stroke="url(#SvgjsLinearGradient1053)" stroke-linecap="round" class="TopRight"></path><path d="M1557 509L2147 -81" stroke-width="8" stroke="url(#SvgjsLinearGradient1053)" stroke-linecap="round" class="TopRight"></path><path d="M155 245L-387 787" stroke-width="6" stroke="url(#SvgjsLinearGradient1053)" stroke-linecap="round" class="TopRight"></path><path d="M253 260L795 -282" stroke-width="6" stroke="url(#SvgjsLinearGradient1053)" stroke-linecap="round" class="TopRight"></path><path d="M930 186L198 918" stroke-width="10" stroke="url(#SvgjsLinearGradient1052)" stroke-linecap="round" class="BottomLeft"></path><path d="M1502 751L1166 1087" stroke-width="6" stroke="url(#SvgjsLinearGradient1053)" stroke-linecap="round" class="TopRight"></path><path d="M1638 23L1986 -325" stroke-width="6" stroke="url(#SvgjsLinearGradient1052)" stroke-linecap="round" class="BottomLeft"></path><path d="M599 440L1294 -255" stroke-width="8" stroke="url(#SvgjsLinearGradient1053)" stroke-linecap="round" class="TopRight"></path><path d="M863 64L539 388" stroke-width="6" stroke="url(#SvgjsLinearGradient1052)" stroke-linecap="round" class="BottomLeft"></path><path d="M1278 430L877 831" stroke-width="8" stroke="url(#SvgjsLinearGradient1053)" stroke-linecap="round" class="TopRight"></path><path d="M1752 361L1315 798" stroke-width="8" stroke="url(#SvgjsLinearGradient1053)" stroke-linecap="round" class="TopRight"></path><path d="M192 726L452 466" stroke-width="8" stroke="url(#SvgjsLinearGradient1052)" stroke-linecap="round" class="BottomLeft"></path><path d="M683 941L176 1448" stroke-width="10" stroke="url(#SvgjsLinearGradient1053)" stroke-linecap="round" class="TopRight"></path><path d="M1595 631L983 1243" stroke-width="8" stroke="url(#SvgjsLinearGradient1052)" stroke-linecap="round" class="BottomLeft"></path><path d="M689 526L1251 -36" stroke-width="10" stroke="url(#SvgjsLinearGradient1053)" stroke-linecap="round" class="TopRight"></path><path d="M42 240L-325 607" stroke-width="6" stroke="url(#SvgjsLinearGradient1052)" stroke-linecap="round" class="BottomLeft"></path><path d="M148 622L642 128" stroke-width="10" stroke="url(#SvgjsLinearGradient1052)" stroke-linecap="round" class="BottomLeft"></path><path d="M451 994L1095 350" stroke-width="10" stroke="url(#SvgjsLinearGradient1052)" stroke-linecap="round" class="BottomLeft"></path><path d="M1071 421L518 974" stroke-width="10" stroke="url(#SvgjsLinearGradient1053)" stroke-linecap="round" class="TopRight"></path><path d="M367 680L-72 1119" stroke-width="8" stroke="url(#SvgjsLinearGradient1053)" stroke-linecap="round" class="TopRight"></path><path d="M1401 722L966 1157" stroke-width="10" stroke="url(#SvgjsLinearGradient1053)" stroke-linecap="round" class="TopRight"></path><path d="M1032 567L1297 302" stroke-width="6" stroke="url(#SvgjsLinearGradient1053)" stroke-linecap="round" class="TopRight"></path><path d="M655 736L950 441" stroke-width="8" stroke="url(#SvgjsLinearGradient1053)" stroke-linecap="round" class="TopRight"></path></g><defs><mask id="SvgjsMask1051"><rect width="1920" height="1000" fill="#ffffff"></rect></mask><linearGradient x1="100%" y1="0%" x2="0%" y2="100%" id="SvgjsLinearGradient1052"><stop stop-color="rgba(41, 41, 42, 0)" offset="0"></stop><stop stop-color="rgba(41, 41, 42, 1)" offset="1"></stop></linearGradient><linearGradient x1="0%" y1="100%" x2="100%" y2="0%" id="SvgjsLinearGradient1053"><stop stop-color="rgba(41, 41, 42, 0)" offset="0"></stop><stop stop-color="rgba(41, 41, 42, 1)" offset="1"></stop></linearGradient></defs></svg>