<svg xmlns="http://www.w3.org/2000/svg" version="1.1" xmlns:xlink="http://www.w3.org/1999/xlink" xmlns:svgjs="http://svgjs.com/svgjs" width="1920" height="800" preserveAspectRatio="none" viewBox="0 0 1920 800"><g mask="url(&quot;#SvgjsMask1134&quot;)" fill="none"><rect width="1920" height="800" x="0" y="0" fill="rgba(18, 18, 18, 1)"></rect><path d="M207 489L667 29" stroke-width="6" stroke="url(#SvgjsLinearGradient1135)" stroke-linecap="round" class="BottomLeft"></path><path d="M156 150L724 -418" stroke-width="10" stroke="url(#SvgjsLinearGradient1135)" stroke-linecap="round" class="BottomLeft"></path><path d="M1710 747L1459 998" stroke-width="10" stroke="url(#SvgjsLinearGradient1135)" stroke-linecap="round" class="BottomLeft"></path><path d="M1745 128L2172 -299" stroke-width="8" stroke="url(#SvgjsLinearGradient1136)" stroke-linecap="round" class="TopRight"></path><path d="M195 28L710 -487" stroke-width="6" stroke="url(#SvgjsLinearGradient1136)" stroke-linecap="round" class="TopRight"></path><path d="M715 80L1138 -343" stroke-width="8" stroke="url(#SvgjsLinearGradient1136)" stroke-linecap="round" class="TopRight"></path><path d="M10 382L335 57" stroke-width="8" stroke="url(#SvgjsLinearGradient1135)" stroke-linecap="round" class="BottomLeft"></path><path d="M358 191L747 -198" stroke-width="6" stroke="url(#SvgjsLinearGradient1136)" stroke-linecap="round" class="TopRight"></path><path d="M653 297L998 -48" stroke-width="8" stroke="url(#SvgjsLinearGradient1136)" stroke-linecap="round" class="TopRight"></path><path d="M1323 614L1047 890" stroke-width="8" stroke="url(#SvgjsLinearGradient1136)" stroke-linecap="round" class="TopRight"></path><path d="M1178 663L956 885" stroke-width="6" stroke="url(#SvgjsLinearGradient1136)" stroke-linecap="round" class="TopRight"></path><path d="M340 695L-195 1230" stroke-width="8" stroke="url(#SvgjsLinearGradient1136)" stroke-linecap="round" class="TopRight"></path><path d="M1400 61L1609 -148" stroke-width="10" stroke="url(#SvgjsLinearGradient1136)" stroke-linecap="round" class="TopRight"></path><path d="M836 574L1086 324" stroke-width="6" stroke="url(#SvgjsLinearGradient1135)" stroke-linecap="round" class="BottomLeft"></path><path d="M988 124L1459 -347" stroke-width="10" stroke="url(#SvgjsLinearGradient1135)" stroke-linecap="round" class="BottomLeft"></path><path d="M545 667L261 951" stroke-width="6" stroke="url(#SvgjsLinearGradient1136)" stroke-linecap="round" class="TopRight"></path><path d="M453 573L198 828" stroke-width="6" stroke="url(#SvgjsLinearGradient1136)" stroke-linecap="round" class="TopRight"></path><path d="M124 123L446 -199" stroke-width="10" stroke="url(#SvgjsLinearGradient1136)" stroke-linecap="round" class="TopRight"></path><path d="M228 477L-85 790" stroke-width="6" stroke="url(#SvgjsLinearGradient1136)" stroke-linecap="round" class="TopRight"></path><path d="M1382 559L1957 -16" stroke-width="8" stroke="url(#SvgjsLinearGradient1136)" stroke-linecap="round" class="TopRight"></path><path d="M707 401L233 875" stroke-width="10" stroke="url(#SvgjsLinearGradient1135)" stroke-linecap="round" class="BottomLeft"></path><path d="M914 82L318 678" stroke-width="6" stroke="url(#SvgjsLinearGradient1135)" stroke-linecap="round" class="BottomLeft"></path><path d="M617 330L325 622" stroke-width="10" stroke="url(#SvgjsLinearGradient1135)" stroke-linecap="round" class="BottomLeft"></path><path d="M365 700L44 1021" stroke-width="8" stroke="url(#SvgjsLinearGradient1136)" stroke-linecap="round" class="TopRight"></path><path d="M796 724L227 1293" stroke-width="8" stroke="url(#SvgjsLinearGradient1136)" stroke-linecap="round" class="TopRight"></path><path d="M964 167L1516 -385" stroke-width="8" stroke="url(#SvgjsLinearGradient1136)" stroke-linecap="round" class="TopRight"></path><path d="M960 105L699 366" stroke-width="8" stroke="url(#SvgjsLinearGradient1136)" stroke-linecap="round" class="TopRight"></path><path d="M1529 583L1246 866" stroke-width="6" stroke="url(#SvgjsLinearGradient1135)" stroke-linecap="round" class="BottomLeft"></path><path d="M1232 285L1474 43" stroke-width="6" stroke="url(#SvgjsLinearGradient1135)" stroke-linecap="round" class="BottomLeft"></path><path d="M34 221L285 -30" stroke-width="8" stroke="url(#SvgjsLinearGradient1135)" stroke-linecap="round" class="BottomLeft"></path><path d="M1894 420L1439 875" stroke-width="8" stroke="url(#SvgjsLinearGradient1135)" stroke-linecap="round" class="BottomLeft"></path><path d="M365 227L861 -269" stroke-width="6" stroke="url(#SvgjsLinearGradient1135)" stroke-linecap="round" class="BottomLeft"></path><path d="M1326 6L1717 -385" stroke-width="10" stroke="url(#SvgjsLinearGradient1136)" stroke-linecap="round" class="TopRight"></path><path d="M1456 209L1901 -236" stroke-width="8" stroke="url(#SvgjsLinearGradient1135)" stroke-linecap="round" class="BottomLeft"></path><path d="M921 642L1249 314" stroke-width="8" stroke="url(#SvgjsLinearGradient1136)" stroke-linecap="round" class="TopRight"></path><path d="M691 266L259 698" stroke-width="8" stroke="url(#SvgjsLinearGradient1135)" stroke-linecap="round" class="BottomLeft"></path><path d="M527 282L67 742" stroke-width="10" stroke="url(#SvgjsLinearGradient1135)" stroke-linecap="round" class="BottomLeft"></path><path d="M1285 14L1026 273" stroke-width="8" stroke="url(#SvgjsLinearGradient1136)" stroke-linecap="round" class="TopRight"></path><path d="M919 753L1193 479" stroke-width="10" stroke="url(#SvgjsLinearGradient1135)" stroke-linecap="round" class="BottomLeft"></path><path d="M664 357L1109 -88" stroke-width="8" stroke="url(#SvgjsLinearGradient1135)" stroke-linecap="round" class="BottomLeft"></path><path d="M489 230L254 465" stroke-width="6" stroke="url(#SvgjsLinearGradient1136)" stroke-linecap="round" class="TopRight"></path><path d="M543 232L174 601" stroke-width="8" stroke="url(#SvgjsLinearGradient1136)" stroke-linecap="round" class="TopRight"></path><path d="M1494 489L1144 839" stroke-width="10" stroke="url(#SvgjsLinearGradient1136)" stroke-linecap="round" class="TopRight"></path><path d="M1180 684L1575 289" stroke-width="6" stroke="url(#SvgjsLinearGradient1136)" stroke-linecap="round" class="TopRight"></path><path d="M147 668L-229 1044" stroke-width="8" stroke="url(#SvgjsLinearGradient1135)" stroke-linecap="round" class="BottomLeft"></path><path d="M1429 303L1916 -184" stroke-width="6" stroke="url(#SvgjsLinearGradient1135)" stroke-linecap="round" class="BottomLeft"></path><path d="M1638 567L1162 1043" stroke-width="10" stroke="url(#SvgjsLinearGradient1136)" stroke-linecap="round" class="TopRight"></path><path d="M1715 190L1266 639" stroke-width="6" stroke="url(#SvgjsLinearGradient1136)" stroke-linecap="round" class="TopRight"></path><path d="M1063 358L1376 45" stroke-width="10" stroke="url(#SvgjsLinearGradient1135)" stroke-linecap="round" class="BottomLeft"></path><path d="M737 245L1132 -150" stroke-width="10" stroke="url(#SvgjsLinearGradient1136)" stroke-linecap="round" class="TopRight"></path><path d="M1752 339L2117 -26" stroke-width="8" stroke="url(#SvgjsLinearGradient1135)" stroke-linecap="round" class="BottomLeft"></path><path d="M684 374L912 146" stroke-width="10" stroke="url(#SvgjsLinearGradient1136)" stroke-linecap="round" class="TopRight"></path></g><defs><mask id="SvgjsMask1134"><rect width="1920" height="800" fill="#ffffff"></rect></mask><linearGradient x1="100%" y1="0%" x2="0%" y2="100%" id="SvgjsLinearGradient1135"><stop stop-color="rgba(218, 65, 103, 0)" offset="0"></stop><stop stop-color="rgba(218, 65, 103, 0.4)" offset="1"></stop></linearGradient><linearGradient x1="0%" y1="100%" x2="100%" y2="0%" id="SvgjsLinearGradient1136"><stop stop-color="rgba(218, 65, 103, 0)" offset="0"></stop><stop stop-color="rgba(218, 65, 103, 0.4)" offset="1"></stop></linearGradient></defs></svg>